<svg width="38" height="38" viewBox="0 0 38 38" fill="none" xmlns="http://www.w3.org/2000/svg">
<path d="M16.5471 24.5413C17.1805 25.1747 17.9985 25.485 19.0013 25.4723C20.0041 25.4597 20.743 25.0966 21.218 24.383L30.0846 11.083L16.7846 19.9497C16.0721 20.4247 15.6964 21.1504 15.6573 22.1268C15.6182 23.1031 15.9149 23.908 16.5471 24.5413ZM19.0013 6.33301C20.5582 6.33301 22.0561 6.55045 23.4948 6.98534C24.9335 7.42023 26.2857 8.07362 27.5513 8.94551L24.543 10.8455C23.6721 10.3969 22.7686 10.0607 21.8323 9.83692C20.896 9.61315 19.9524 9.50073 19.0013 9.49967C15.4916 9.49967 12.5028 10.7336 10.0349 13.2015C7.567 15.6694 6.33358 18.6577 6.33464 22.1663C6.33464 23.2747 6.48664 24.3698 6.79064 25.4518C7.09464 26.5337 7.52319 27.5497 8.0763 28.4997H29.9263C30.5332 27.4969 30.9755 26.4545 31.2531 25.3726C31.5307 24.2906 31.669 23.1691 31.668 22.008C31.668 21.058 31.5556 20.1344 31.3307 19.2372C31.1059 18.34 30.7697 17.4691 30.3221 16.6247L32.2221 13.6163C33.0138 14.8566 33.6408 16.1761 34.1031 17.5747C34.5655 18.9733 34.8093 20.4247 34.8346 21.9288C34.861 23.433 34.6895 24.8712 34.3201 26.2434C33.9506 27.6156 33.4096 28.9219 32.6971 30.1622C32.4069 30.6372 32.011 31.0066 31.5096 31.2705C31.0082 31.5344 30.4805 31.6663 29.9263 31.6663H8.0763C7.52214 31.6663 6.99436 31.5344 6.49297 31.2705C5.99158 31.0066 5.59575 30.6372 5.30547 30.1622C4.61936 28.9747 4.09158 27.7149 3.72214 26.3828C3.35269 25.0506 3.16797 23.6452 3.16797 22.1663C3.16797 19.9761 3.58386 17.9246 4.41564 16.0119C5.24741 14.0993 6.38214 12.4236 7.8198 10.9848C9.25747 9.54612 10.939 8.4114 12.8643 7.58067C14.7896 6.74995 16.8353 6.33406 19.0013 6.33301Z" fill="black"/>
</svg>
