<svg width="32" height="32" viewBox="0 0 32 32" fill="none" xmlns="http://www.w3.org/2000/svg">
<path d="M15.9987 3.99967C14.4228 3.99967 12.8624 4.31006 11.4065 4.91312C9.95059 5.51618 8.62772 6.40009 7.51342 7.51439C6.39911 8.6287 5.5152 9.95157 4.91214 11.4075C4.30909 12.8634 3.9987 14.4238 3.9987 15.9997C3.9987 17.5755 4.30909 19.136 4.91214 20.5919C5.5152 22.0478 6.39911 23.3707 7.51342 24.485C8.62772 25.5993 9.95059 26.4832 11.4065 27.0862C12.8624 27.6893 14.4228 27.9997 15.9987 27.9997C19.1813 27.9997 22.2335 26.7354 24.484 24.485C26.7344 22.2345 27.9987 19.1823 27.9987 15.9997C27.9987 12.8171 26.7344 9.76483 24.484 7.51439C22.2335 5.26396 19.1813 3.99967 15.9987 3.99967ZM1.33203 15.9997C1.33203 7.89967 7.8987 1.33301 15.9987 1.33301C24.0987 1.33301 30.6654 7.89967 30.6654 15.9997C30.6654 24.0997 24.0987 30.6663 15.9987 30.6663C7.8987 30.6663 1.33203 24.0997 1.33203 15.9997ZM15.9987 9.33301C14.2306 9.33301 12.5349 10.0354 11.2847 11.2856C10.0344 12.5359 9.33203 14.2316 9.33203 15.9997C9.33203 17.7678 10.0344 19.4635 11.2847 20.7137C12.5349 21.964 14.2306 22.6663 15.9987 22.6663C17.7668 22.6663 19.4625 21.964 20.7127 20.7137C21.963 19.4635 22.6654 17.7678 22.6654 15.9997C22.6654 14.2316 21.963 12.5359 20.7127 11.2856C19.4625 10.0354 17.7668 9.33301 15.9987 9.33301ZM6.66536 15.9997C6.66536 14.774 6.90678 13.5603 7.37582 12.428C7.84487 11.2956 8.53235 10.2667 9.39903 9.40001C10.2657 8.53333 11.2946 7.84584 12.427 7.3768C13.5594 6.90775 14.773 6.66634 15.9987 6.66634C17.2244 6.66634 18.438 6.90775 19.5704 7.3768C20.7028 7.84584 21.7317 8.53333 22.5984 9.40001C23.465 10.2667 24.1525 11.2956 24.6216 12.428C25.0906 13.5603 25.332 14.774 25.332 15.9997C25.332 18.475 24.3487 20.849 22.5984 22.5993C20.848 24.3497 18.4741 25.333 15.9987 25.333C13.5233 25.333 11.1494 24.3497 9.39903 22.5993C7.64869 20.849 6.66536 18.475 6.66536 15.9997ZM13.332 15.9997C13.332 15.2924 13.613 14.6142 14.1131 14.1141C14.6132 13.614 15.2915 13.333 15.9987 13.333C16.7059 13.333 17.3842 13.614 17.8843 14.1141C18.3844 14.6142 18.6654 15.2924 18.6654 15.9997C18.6654 16.7069 18.3844 17.3852 17.8843 17.8853C17.3842 18.3854 16.7059 18.6663 15.9987 18.6663C15.2915 18.6663 14.6132 18.3854 14.1131 17.8853C13.613 17.3852 13.332 16.7069 13.332 15.9997Z" fill="black"/>
</svg>
