<svg width="78" height="78" viewBox="0 0 78 78" fill="none" xmlns="http://www.w3.org/2000/svg">
<path d="M40.8127 3.12231C40.8127 3.12231 38.8384 4.12992 36.866 5.61374C35.8799 6.35566 34.8817 7.2164 34.0926 8.2077C33.3034 9.19885 32.6602 10.3759 32.758 11.7521C32.8668 13.2817 33.9037 14.4207 35.0097 15.1037C36.1155 15.7865 37.3713 16.1997 38.5539 16.6072C39.7367 17.0147 40.8467 17.4166 41.5508 17.8515C42.2551 18.2863 42.4728 18.568 42.508 19.0646C42.5121 19.121 42.4444 19.422 42.11 19.842C41.7756 20.2621 41.2376 20.7454 40.6749 21.169C39.5494 22.0155 38.3752 22.6223 38.3752 22.6223L39.626 25.0623C39.626 25.0623 40.9706 24.3776 42.3234 23.36C42.9998 22.8511 43.6908 22.259 44.2553 21.5501C44.8197 20.841 45.3206 19.9597 45.2432 18.8699C45.1344 17.3404 44.0976 16.2013 42.9916 15.5184C41.8856 14.8354 40.6299 14.4224 39.4473 14.0149C38.2645 13.6074 37.1545 13.2055 36.4504 12.7705C35.7461 12.3356 35.5284 12.0541 35.4932 11.5574C35.4688 11.2144 35.6786 10.6178 36.2376 9.91563C36.7967 9.21332 37.6419 8.4609 38.5145 7.80445C40.2594 6.4917 42.0635 5.56225 42.0635 5.56225L40.8127 3.12231ZM21.3127 10.4348C21.3127 10.4348 19.3384 11.4424 17.366 12.9262C16.3799 13.6682 15.3817 14.5289 14.5926 15.5202C13.8034 16.5113 13.1602 17.6884 13.258 19.0646C13.3668 20.5942 14.4036 21.7332 15.5097 22.4162C16.6155 23.099 17.8713 23.5122 19.0539 23.9197C20.2367 24.3272 21.3467 24.7291 22.0509 25.164C22.7551 25.5988 22.9728 25.8805 23.008 26.3771C23.0121 26.4335 22.9443 26.7345 22.61 27.1545C22.2756 27.5746 21.7376 28.0579 21.1749 28.4815C20.0494 29.328 18.8752 29.9348 18.8752 29.9348L20.126 32.3748C20.126 32.3748 21.4706 31.6901 22.8234 30.6725C23.4998 30.1636 24.1908 29.5715 24.7553 28.8625C25.3197 28.1535 25.8206 27.272 25.7432 26.1824C25.6344 24.6529 24.5976 23.5138 23.4916 22.8309C22.3856 22.1479 21.1299 21.7349 19.9473 21.3274C18.7645 20.9199 17.6545 20.518 16.9504 20.083C16.2461 19.6481 16.0284 19.3666 15.9932 18.8699C15.9688 18.5269 16.1786 17.9303 16.7376 17.2281C17.2967 16.5258 18.1419 15.7734 19.0145 15.1169C20.7594 13.8042 22.5635 12.8748 22.5635 12.8748L21.3127 10.4348ZM60.3127 10.4348C60.3127 10.4348 58.3384 11.4424 56.366 12.9262C55.3799 13.6682 54.3817 14.5289 53.5926 15.5202C52.8034 16.5113 52.1602 17.6884 52.258 19.0646C52.3668 20.5942 53.4037 21.7332 54.5097 22.4162C55.6155 23.099 56.8713 23.5122 58.0539 23.9197C59.2367 24.3272 60.3467 24.7291 61.0509 25.164C61.7551 25.5988 61.9728 25.8805 62.008 26.3771C62.0121 26.4335 61.9444 26.7345 61.61 27.1545C61.2756 27.5746 60.7376 28.0579 60.1749 28.4815C59.0494 29.328 57.8752 29.9348 57.8752 29.9348L59.126 32.3748C59.126 32.3748 60.4706 31.6901 61.8234 30.6725C62.4998 30.1636 63.1908 29.5715 63.7553 28.8625C64.3197 28.1535 64.8206 27.272 64.7432 26.1824C64.6344 24.6529 63.5976 23.5138 62.4916 22.8309C61.3856 22.1479 60.1299 21.7349 58.9473 21.3274C57.7645 20.9199 56.6545 20.518 55.9504 20.083C55.2461 19.6481 55.0284 19.3666 54.9932 18.8699C54.9688 18.5269 55.1786 17.9303 55.7376 17.2281C56.2967 16.5258 57.1419 15.7734 58.0145 15.1169C59.7594 13.8042 61.5635 12.8748 61.5635 12.8748L60.3127 10.4348ZM39.0006 28.5646C37.0201 28.5646 35.6807 29.4656 34.657 31.0012C34.2332 31.637 33.8912 32.3876 33.634 33.2049C35.3585 32.9601 37.1486 32.8309 39.0006 32.8309C40.8527 32.8309 42.6425 32.9601 44.3672 33.2049C44.1101 32.3876 43.7681 31.637 43.3442 31.0012C42.3205 29.4656 40.9811 28.5646 39.0006 28.5646ZM39.0006 35.5724C20.8067 35.5724 9.48371 48.68 8.75429 62.0809H69.2469C68.5174 48.68 57.1944 35.5723 39.0006 35.5723V35.5724ZM3.40748 62.787L1.46875 64.7257C4.22922 67.4863 7.31311 67.5646 9.75061 67.5646H68.2506C70.6881 67.5646 73.7719 67.4863 76.5325 64.7257L74.5938 62.787C72.4792 64.9014 70.6881 64.8231 68.2506 64.8231H9.75061C7.31311 64.8231 5.52186 64.9014 3.40748 62.787ZM17.1871 70.3068L20.2343 74.8777H57.7669L60.8141 70.3068H17.1871Z" fill="url(#paint0_linear_504_3659)"/>
<defs>
<linearGradient id="paint0_linear_504_3659" x1="39.0006" y1="3.12231" x2="39.0006" y2="74.8777" gradientUnits="userSpaceOnUse">
<stop stop-color="#1B5218"/>
<stop offset="1" stop-color="#1B5218"/>
</linearGradient>
</defs>
</svg>
