<svg width="390" height="800" viewBox="0 0 390 800" fill="none" xmlns="http://www.w3.org/2000/svg">
<path d="M33.0424 38.9596C30.0637 37.0554 25.5327 32.7996 25.5327 32.7996C25.5327 32.7996 23.0295 30.4304 19.525 26.6397C11.1329 17.5621 0.500642 2 0.500642 2L0 799C0 799 11.0754 767.11 27.5 750.095C33.3939 743.99 37 741.38 42 738.959C51.2682 734.471 61.7303 732.188 72.0924 732.188H327.42H355.956C365.971 732.188 371.875 739.443 376 744.769C382 752.516 390 769.148 390 769.148V12.4245L376.983 26.1659C376.983 26.1659 368.727 35.5978 360.462 38.9596C352.559 42.1744 339.435 42.2765 339.435 42.2765H43.0552C38.9124 42.2765 35.8719 40.7684 33.0424 38.9596Z" fill="#FF6D00" stroke="#FF6D00"/>
</svg>
