<svg width="12" height="11" viewBox="0 0 12 11" fill="none" xmlns="http://www.w3.org/2000/svg">
<path d="M10.6665 4.83287H2.75984L5.17984 1.9262C5.293 1.79005 5.34744 1.61453 5.33118 1.43825C5.31493 1.26197 5.22932 1.09936 5.09317 0.986199C4.95703 0.87304 4.78151 0.818599 4.60522 0.834852C4.42894 0.851105 4.26633 0.936722 4.15317 1.07287L0.819837 5.07287C0.797411 5.10468 0.777357 5.13811 0.759837 5.17287C0.759837 5.2062 0.759837 5.2262 0.713171 5.25953C0.682953 5.33597 0.667131 5.41734 0.666504 5.49953C0.667131 5.58173 0.682953 5.66309 0.713171 5.73953C0.713171 5.77287 0.71317 5.79287 0.759837 5.8262C0.777357 5.86096 0.797411 5.89438 0.819837 5.9262L4.15317 9.9262C4.21585 10.0015 4.29435 10.062 4.38307 10.1035C4.47179 10.1449 4.56856 10.1664 4.6665 10.1662C4.82227 10.1665 4.97323 10.1123 5.09317 10.0129C5.16068 9.9569 5.21648 9.88817 5.25738 9.8106C5.29828 9.73304 5.32348 9.64817 5.33153 9.56085C5.33958 9.47353 5.33032 9.38548 5.30429 9.30175C5.27826 9.21801 5.23597 9.14023 5.17984 9.07287L2.75984 6.1662H10.6665C10.8433 6.1662 11.0129 6.09596 11.1379 5.97094C11.2629 5.84591 11.3332 5.67634 11.3332 5.49953C11.3332 5.32272 11.2629 5.15315 11.1379 5.02813C11.0129 4.9031 10.8433 4.83287 10.6665 4.83287Z" fill="#353535"/>
</svg>
