<svg width="16" height="15" viewBox="0 0 16 15" fill="none" xmlns="http://www.w3.org/2000/svg">
<path d="M13.5166 0H2.43331C2.01338 0 1.61066 0.175595 1.31372 0.488155C1.01679 0.800716 0.849976 1.22464 0.849976 1.66667V13.3333C0.849976 13.7754 1.01679 14.1993 1.31372 14.5118C1.61066 14.8244 2.01338 15 2.43331 15H13.5166C13.9366 15 14.3393 14.8244 14.6362 14.5118C14.9332 14.1993 15.1 13.7754 15.1 13.3333V1.66667C15.1 1.22464 14.9332 0.800716 14.6362 0.488155C14.3393 0.175595 13.9366 0 13.5166 0ZM6.39164 11.6667L2.43331 7.5L3.54956 6.325L6.39164 9.30833L12.4004 2.98333L13.5166 4.16667L6.39164 11.6667Z" fill="#F47900"/>
</svg>
