<svg width="14" height="14" viewBox="0 0 14 14" fill="none" xmlns="http://www.w3.org/2000/svg">
<path d="M7 0C5.61553 0 4.26215 0.410543 3.11101 1.17971C1.95987 1.94888 1.06266 3.04213 0.532846 4.32122C0.00303297 5.6003 -0.13559 7.00776 0.134506 8.36563C0.404603 9.7235 1.07129 10.9708 2.05026 11.9497C3.02922 12.9287 4.2765 13.5954 5.63437 13.8655C6.99224 14.1356 8.3997 13.997 9.67879 13.4672C10.9579 12.9373 12.0511 12.0401 12.8203 10.889C13.5895 9.73785 14 8.38447 14 7C14 5.14348 13.2625 3.36301 11.9497 2.05025C10.637 0.737498 8.85652 0 7 0ZM10.5 9.66875C10.616 9.78478 10.6812 9.94215 10.6812 10.1062C10.6812 10.2703 10.616 10.4277 10.5 10.5437C10.384 10.6598 10.2266 10.725 10.0625 10.725C9.89841 10.725 9.74103 10.6598 9.625 10.5437L7 7.91875L4.375 10.5525C4.31755 10.61 4.24934 10.6555 4.17428 10.6866C4.09921 10.7177 4.01875 10.7337 3.9375 10.7337C3.85625 10.7337 3.7758 10.7177 3.70073 10.6866C3.62566 10.6555 3.55746 10.61 3.5 10.5525C3.44255 10.495 3.39697 10.4268 3.36588 10.3518C3.33479 10.2767 3.31878 10.1962 3.31878 10.115C3.31878 10.0337 3.33479 9.95329 3.36588 9.87822C3.39697 9.80316 3.44255 9.73495 3.5 9.6775L6.125 7.035L3.42563 4.31375C3.3096 4.19772 3.24441 4.04034 3.24441 3.87625C3.24441 3.71215 3.3096 3.55478 3.42563 3.43875C3.54166 3.32272 3.69903 3.25753 3.86313 3.25753C4.02722 3.25753 4.1846 3.32272 4.30063 3.43875L7 6.16875L9.69938 3.46937C9.75683 3.41192 9.82504 3.36635 9.9001 3.33525C9.97517 3.30416 10.0556 3.28816 10.1369 3.28816C10.2181 3.28816 10.2986 3.30416 10.3736 3.33525C10.4487 3.36635 10.5169 3.41192 10.5744 3.46937C10.6318 3.52683 10.6774 3.59503 10.7085 3.6701C10.7396 3.74517 10.7556 3.82562 10.7556 3.90687C10.7556 3.98813 10.7396 4.06858 10.7085 4.14365C10.6774 4.21871 10.6318 4.28692 10.5744 4.34437L7.875 7.035L10.5 9.66875Z" fill="#F47900"/>
</svg>
