<svg width="22" height="22" viewBox="0 0 22 22" fill="none" xmlns="http://www.w3.org/2000/svg">
<path d="M11 0.333252C8.89035 0.333252 6.82806 0.958841 5.07393 2.13091C3.31981 3.30298 1.95263 4.96888 1.1453 6.91796C0.337965 8.86704 0.12673 11.0118 0.538305 13.0809C0.949881 15.15 1.96578 17.0506 3.45754 18.5424C4.9493 20.0342 6.84992 21.0501 8.91905 21.4616C10.9882 21.8732 13.1329 21.662 15.082 20.8546C17.031 20.0473 18.697 18.6801 19.869 16.926C21.0411 15.1719 21.6667 13.1096 21.6667 10.9999C21.6667 8.17094 20.5429 5.45783 18.5425 3.45745C16.5421 1.45706 13.829 0.333252 11 0.333252ZM16.3333 15.0666C16.5102 15.2434 16.6095 15.4832 16.6095 15.7333C16.6095 15.9833 16.5102 16.2231 16.3333 16.3999C16.1565 16.5767 15.9167 16.6761 15.6667 16.6761C15.4166 16.6761 15.1768 16.5767 15 16.3999L11 12.3999L7.00001 16.4133C6.91247 16.5008 6.80853 16.5702 6.69415 16.6176C6.57976 16.665 6.45716 16.6894 6.33335 16.6894C6.20954 16.6894 6.08694 16.665 5.97255 16.6176C5.85816 16.5702 5.75423 16.5008 5.66668 16.4133C5.57913 16.3257 5.50969 16.2218 5.46231 16.1074C5.41493 15.993 5.39054 15.8704 5.39054 15.7466C5.39054 15.6228 5.41493 15.5002 5.46231 15.3858C5.50969 15.2714 5.57913 15.1675 5.66668 15.0799L9.66668 11.0533L5.55335 6.90658C5.37654 6.72977 5.27721 6.48997 5.27721 6.23992C5.27721 5.98987 5.37654 5.75006 5.55335 5.57325C5.73016 5.39644 5.96997 5.29711 6.22002 5.29711C6.47006 5.29711 6.70987 5.39644 6.88668 5.57325L11 9.73325L15.1133 5.61992C15.2009 5.53237 15.3048 5.46292 15.4192 5.41554C15.5336 5.36816 15.6562 5.34378 15.78 5.34378C15.9038 5.34378 16.0264 5.36816 16.1408 5.41554C16.2552 5.46292 16.3591 5.53237 16.4467 5.61992C16.5342 5.70747 16.6037 5.8114 16.6511 5.92579C16.6984 6.04017 16.7228 6.16277 16.7228 6.28659C16.7228 6.4104 16.6984 6.533 16.6511 6.64738C16.6037 6.76177 16.5342 6.8657 16.4467 6.95325L12.3333 11.0533L16.3333 15.0666Z" fill="#949494"/>
</svg>
