<svg width="20" height="20" viewBox="0 0 20 20" fill="none" xmlns="http://www.w3.org/2000/svg">
<path d="M3.125 17.4609C3.125 17.8066 3.4043 18.0859 3.75 18.0859H9.33594V10.7422H3.125V17.4609ZM10.6641 18.0859H16.25C16.5957 18.0859 16.875 17.8066 16.875 17.4609V10.7422H10.6641V18.0859ZM17.1875 6.05469H14.3047C14.5703 5.63672 14.7266 5.14063 14.7266 4.60938C14.7266 3.12305 13.5176 1.91406 12.0312 1.91406C11.2227 1.91406 10.4941 2.27344 10 2.83984C9.50586 2.27344 8.77734 1.91406 7.96875 1.91406C6.48242 1.91406 5.27344 3.12305 5.27344 4.60938C5.27344 5.14063 5.42773 5.63672 5.69531 6.05469H2.8125C2.4668 6.05469 2.1875 6.33398 2.1875 6.67969V9.41406H9.33594V6.05469H10.6641V9.41406H17.8125V6.67969C17.8125 6.33398 17.5332 6.05469 17.1875 6.05469ZM9.33594 5.97656H7.96875C7.21484 5.97656 6.60156 5.36328 6.60156 4.60938C6.60156 3.85547 7.21484 3.24219 7.96875 3.24219C8.72266 3.24219 9.33594 3.85547 9.33594 4.60938V5.97656ZM12.0312 5.97656H10.6641V4.60938C10.6641 3.85547 11.2773 3.24219 12.0312 3.24219C12.7852 3.24219 13.3984 3.85547 13.3984 4.60938C13.3984 5.36328 12.7852 5.97656 12.0312 5.97656Z" fill="white"/>
</svg>
