<svg width="13" height="11" viewBox="0 0 13 11" fill="none" xmlns="http://www.w3.org/2000/svg">
<path d="M1.54168 6.20842H9.94251L7.37126 9.29675C7.31173 9.36837 7.26689 9.45102 7.23929 9.53998C7.2117 9.62893 7.2019 9.72245 7.21045 9.8152C7.22772 10.0025 7.31869 10.1753 7.46334 10.2955C7.608 10.4157 7.79449 10.4736 7.98179 10.4563C8.16909 10.439 8.34186 10.3481 8.46209 10.2034L12.0038 5.95342C12.0276 5.91961 12.0489 5.8841 12.0675 5.84717C12.0675 5.81175 12.1029 5.7905 12.1171 5.75508C12.1492 5.67387 12.166 5.58741 12.1667 5.50008C12.166 5.41275 12.1492 5.3263 12.1171 5.24508C12.1171 5.20967 12.0817 5.18842 12.0675 5.153C12.0489 5.11607 12.0276 5.08055 12.0038 5.04675L8.46209 0.796749C8.39549 0.716791 8.3121 0.652488 8.21783 0.608415C8.12356 0.564342 8.02074 0.54158 7.91668 0.541749C7.75117 0.541426 7.59078 0.599067 7.46334 0.704666C7.39162 0.76413 7.33233 0.83716 7.28887 0.919572C7.24541 1.00198 7.21864 1.09216 7.21009 1.18494C7.20153 1.27771 7.21137 1.37126 7.23902 1.46023C7.26668 1.5492 7.31162 1.63184 7.37126 1.70342L9.94251 4.79175H1.54168C1.35382 4.79175 1.17365 4.86638 1.04081 4.99922C0.907971 5.13205 0.833344 5.31222 0.833344 5.50008C0.833344 5.68794 0.907971 5.86811 1.04081 6.00095C1.17365 6.13379 1.35382 6.20842 1.54168 6.20842Z" fill="white"/>
</svg>
