    <svg
      width="17"
      height="17"
      viewBox="0 0 17 17"
      fill="none"
      xmlns="http://www.w3.org/2000/svg"
    >
      <path
        d="M15.8661 9.0666C15.8661 9.36718 15.7467 9.65545 15.5342 9.86799C15.3217 10.0805 15.0334 10.1999 14.7328 10.1999H2.26615C1.96557 10.1999 1.6773 10.0805 1.46476 9.86799C1.25222 9.65545 1.13281 9.36718 1.13281 9.0666C1.13281 8.76602 1.25222 8.47776 1.46476 8.26521C1.6773 8.05267 1.96557 7.93327 2.26615 7.93327H14.7328C15.0334 7.93327 15.3217 8.05267 15.5342 8.26521C15.7467 8.47776 15.8661 8.76602 15.8661 9.0666ZM3.96615 11.3333H2.26615C2.26615 12.235 2.62436 13.0998 3.26198 13.7374C3.89961 14.3751 4.76441 14.7333 5.66615 14.7333H11.3328C12.2345 14.7333 13.0994 14.3751 13.737 13.7374C14.3746 13.0998 14.7328 12.235 14.7328 11.3333H3.96615ZM3.39948 6.79993H2.26615V4.53327C2.26615 3.93211 2.50495 3.35558 2.93004 2.93049C3.35512 2.50541 3.93166 2.2666 4.53281 2.2666H12.4661C13.0673 2.2666 13.6438 2.50541 14.0689 2.93049C14.494 3.35558 14.7328 3.93211 14.7328 4.53327V6.79993H3.39948ZM12.4661 5.09993C12.4661 5.25022 12.5258 5.39436 12.6321 5.50063C12.7384 5.6069 12.8825 5.6666 13.0328 5.6666C13.1831 5.6666 13.3272 5.6069 13.4335 5.50063C13.5398 5.39436 13.5995 5.25022 13.5995 5.09993C13.5995 4.94965 13.5398 4.80551 13.4335 4.69924C13.3272 4.59297 13.1831 4.53327 13.0328 4.53327C12.8825 4.53327 12.7384 4.59297 12.6321 4.69924C12.5258 4.80551 12.4661 4.94965 12.4661 5.09993ZM10.1995 3.9666C10.1995 4.11689 10.2592 4.26102 10.3655 4.3673C10.4717 4.47357 10.6159 4.53327 10.7661 4.53327C10.9164 4.53327 11.0606 4.47357 11.1668 4.3673C11.2731 4.26102 11.3328 4.11689 11.3328 3.9666C11.3328 3.81631 11.2731 3.67218 11.1668 3.56591C11.0606 3.45964 10.9164 3.39993 10.7661 3.39993C10.6159 3.39993 10.4717 3.45964 10.3655 3.56591C10.2592 3.67218 10.1995 3.81631 10.1995 3.9666ZM7.93281 5.09993C7.93281 5.25022 7.99251 5.39436 8.09879 5.50063C8.20506 5.6069 8.34919 5.6666 8.49948 5.6666C8.64977 5.6666 8.7939 5.6069 8.90017 5.50063C9.00644 5.39436 9.06615 5.25022 9.06615 5.09993C9.06615 4.94965 9.00644 4.80551 8.90017 4.69924C8.7939 4.59297 8.64977 4.53327 8.49948 4.53327C8.34919 4.53327 8.20506 4.59297 8.09879 4.69924C7.99251 4.80551 7.93281 4.94965 7.93281 5.09993ZM5.66615 3.9666C5.66615 4.11689 5.72585 4.26102 5.83212 4.3673C5.93839 4.47357 6.08252 4.53327 6.23281 4.53327C6.3831 4.53327 6.52724 4.47357 6.63351 4.3673C6.73978 4.26102 6.79948 4.11689 6.79948 3.9666C6.79948 3.81631 6.73978 3.67218 6.63351 3.56591C6.52724 3.45964 6.3831 3.39993 6.23281 3.39993C6.08252 3.39993 5.93839 3.45964 5.83212 3.56591C5.72585 3.67218 5.66615 3.81631 5.66615 3.9666ZM3.39948 5.09993C3.39948 5.25022 3.45918 5.39436 3.56545 5.50063C3.67172 5.6069 3.81586 5.6666 3.96615 5.6666C4.11644 5.6666 4.26057 5.6069 4.36684 5.50063C4.47311 5.39436 4.53281 5.25022 4.53281 5.09993C4.53281 4.94965 4.47311 4.80551 4.36684 4.69924C4.26057 4.59297 4.11644 4.53327 3.96615 4.53327C3.81586 4.53327 3.67172 4.59297 3.56545 4.69924C3.45918 4.80551 3.39948 4.94965 3.39948 5.09993Z"
        fill="#353535"
      />
    </svg>