<svg width="120" height="120" viewBox="0 0 120 120" fill="none" xmlns="http://www.w3.org/2000/svg">
<circle cx="60" cy="60" r="60" fill="#F47900" fill-opacity="0.06"/>
<g clip-path="url(#clip0_6423_13458)">
<path d="M94.4637 87.2507C92.8535 88.976 91.0084 90.4657 88.9828 91.6759C88.9363 91.7045 88.8891 91.7313 88.8417 91.7591L85.5625 88.8545C85.5969 88.8225 85.6351 88.7866 85.6762 88.7471C88.1195 86.4253 100.249 70.1915 101.058 66.2383C101.002 66.5676 101.787 79.4831 94.4637 87.2507Z" fill="#F0F0F0"/>
<path d="M89.6133 92.2367C89.5513 92.2515 89.4883 92.2654 89.425 92.278L86.9648 90.0989C87.0129 90.0822 87.0691 90.0622 87.1334 90.0401C88.1889 89.666 91.3327 88.5369 94.4613 87.2508C97.823 85.8683 101.169 84.3062 101.888 83.3057C101.734 83.5382 96.9793 90.5883 89.6133 92.2367Z" fill="#F0F0F0"/>
<path d="M94.4147 44.2848H94.0644V34.6801C94.0644 33.9501 93.9207 33.2272 93.6416 32.5527C93.3624 31.8783 92.9533 31.2655 92.4374 30.7493C91.9216 30.2331 91.3093 29.8236 90.6353 29.5442C89.9614 29.2649 89.2391 29.1211 88.5096 29.1211H68.1759C67.4464 29.1211 66.7241 29.2649 66.0502 29.5442C65.3762 29.8236 64.7639 30.2331 64.2481 30.7493C63.7322 31.2655 63.3231 31.8783 63.0439 32.5527C62.7648 33.2272 62.6211 33.95 62.6211 34.6801V87.3726C62.6211 88.1026 62.7648 88.8255 63.0439 89.4999C63.3231 90.1744 63.7322 90.7872 64.2481 91.3034C64.7639 91.8196 65.3762 92.2291 66.0502 92.5084C66.7241 92.7878 67.4464 92.9316 68.1759 92.9316H88.5096C89.2391 92.9316 89.9614 92.7878 90.6353 92.5084C91.3093 92.2291 91.9216 91.8196 92.4374 91.3034C92.9532 90.7872 93.3624 90.1744 93.6416 89.4999C93.9207 88.8255 94.0644 88.1026 94.0644 87.3726V51.1217H94.4147V44.2848Z" fill="#3F3D56"/>
<path d="M92.8842 34.7189V87.3347C92.8842 87.8799 92.7769 88.4197 92.5683 88.9234C92.3598 89.4271 92.0542 89.8847 91.6689 90.2701C91.2836 90.6556 90.8262 90.9612 90.3229 91.1697C89.8195 91.3782 89.2801 91.4854 88.7353 91.4852H68.3037C67.759 91.4853 67.2197 91.378 66.7165 91.1694C66.2133 90.9608 65.7561 90.6551 65.3709 90.2697C64.9858 89.8843 64.6803 89.4267 64.4719 88.9231C64.2635 88.4195 64.1562 87.8798 64.1563 87.3347V34.7189C64.1562 34.1738 64.2635 33.6341 64.4719 33.1305C64.6803 32.6269 64.9858 32.1693 65.3709 31.7839C65.7561 31.3985 66.2133 31.0928 66.7165 30.8842C67.2197 30.6756 67.759 30.5683 68.3037 30.5684H70.7832C70.6614 30.8679 70.6151 31.1927 70.6483 31.5143C70.6815 31.8359 70.7931 32.1444 70.9734 32.4127C71.1536 32.681 71.397 32.9009 71.6821 33.053C71.9672 33.2051 72.2852 33.2847 72.6083 33.2849H84.257C84.5802 33.2852 84.8986 33.2059 85.184 33.054C85.4693 32.902 85.713 32.6821 85.8933 32.4137C86.0737 32.1452 86.1853 31.8365 86.2182 31.5146C86.2512 31.1928 86.2044 30.8678 86.0822 30.5684H88.7353C89.2801 30.5682 89.8195 30.6754 90.3229 30.8839C90.8262 31.0924 91.2836 31.3981 91.6689 31.7835C92.0542 32.1689 92.3598 32.6265 92.5683 33.1302C92.7769 33.6339 92.8842 34.1737 92.8842 34.7189Z" fill="white"/>
<path d="M86.528 62.0604H68.5693C68.2547 62.06 67.9531 61.9348 67.7307 61.7122C67.5083 61.4896 67.3832 61.1879 67.3828 60.8731V60.2821C67.3832 59.9673 67.5083 59.6655 67.7307 59.4429C67.9531 59.2203 68.2547 59.0951 68.5693 59.0947H86.528C86.8426 59.0951 87.1441 59.2203 87.3666 59.4429C87.589 59.6655 87.7141 59.9673 87.7145 60.2821V60.8731C87.7141 61.1879 87.589 61.4896 87.3666 61.7122C87.1441 61.9348 86.8426 62.06 86.528 62.0604Z" fill="#F0F0F0"/>
<path d="M86.528 67.1551H68.5693C68.2547 67.1548 67.9531 67.0296 67.7307 66.807C67.5083 66.5844 67.3832 66.2826 67.3828 65.9678V65.3768C67.3832 65.062 67.5083 64.7602 67.7307 64.5376C67.9531 64.315 68.2547 64.1898 68.5693 64.1895H86.528C86.8426 64.1898 87.1441 64.315 87.3666 64.5376C87.589 64.7602 87.7141 65.062 87.7145 65.3768V65.9678C87.7141 66.2826 87.589 66.5844 87.3666 66.807C87.1441 67.0296 86.8426 67.1548 86.528 67.1551Z" fill="#F0F0F0"/>
<path d="M87.4272 60.9213H69.4684C69.1381 60.9209 68.8215 60.7895 68.5879 60.5557C68.3544 60.322 68.223 60.0051 68.2227 59.6746V59.0836C68.223 58.7531 68.3544 58.4362 68.5879 58.2025C68.8215 57.9688 69.1381 57.8373 69.4684 57.8369H87.4272C87.7575 57.8373 88.0741 57.9688 88.3076 58.2025C88.5412 58.4362 88.6726 58.7531 88.6729 59.0836V59.6746C88.6726 60.0051 88.5412 60.322 88.3076 60.5557C88.0741 60.7895 87.7575 60.9209 87.4272 60.9213ZM69.4684 58.0744C69.201 58.0747 68.9447 58.1811 68.7556 58.3703C68.5666 58.5595 68.4602 58.816 68.4599 59.0836V59.6746C68.4602 59.9422 68.5666 60.1987 68.7556 60.3879C68.9447 60.5771 69.201 60.6835 69.4684 60.6838H87.4272C87.6946 60.6835 87.9509 60.5771 88.1399 60.3879C88.329 60.1987 88.4354 59.9422 88.4357 59.6746V59.0836C88.4354 58.816 88.329 58.5595 88.1399 58.3703C87.9509 58.1811 87.6946 58.0747 87.4272 58.0744H69.4684Z" fill="#3F3D56"/>
<path d="M87.4272 66.016H69.4684C69.1381 66.0157 68.8215 65.8842 68.5879 65.6505C68.3544 65.4168 68.223 65.0999 68.2227 64.7693V64.1783C68.223 63.8478 68.3544 63.5309 68.5879 63.2972C68.8215 63.0635 69.1381 62.932 69.4684 62.9316H87.4272C87.7575 62.932 88.0741 63.0635 88.3076 63.2972C88.5412 63.5309 88.6726 63.8478 88.6729 64.1783V64.7693C88.6726 65.0999 88.5412 65.4168 88.3076 65.6505C88.0741 65.8842 87.7575 66.0157 87.4272 66.016ZM69.4684 63.1691C69.201 63.1694 68.9447 63.2758 68.7556 63.465C68.5666 63.6542 68.4602 63.9108 68.4599 64.1783V64.7693C68.4602 65.0369 68.5666 65.2934 68.7556 65.4826C68.9447 65.6718 69.201 65.7783 69.4684 65.7786H87.4272C87.6946 65.7783 87.9509 65.6718 88.1399 65.4826C88.329 65.2934 88.4354 65.0369 88.4357 64.7693V64.1783C88.4354 63.9108 88.329 63.6542 88.1399 63.465C87.9509 63.2758 87.6946 63.1694 87.4272 63.1691H69.4684Z" fill="#3F3D56"/>
<path d="M92.8824 34.7189V46.1636C91.0653 46.642 89.1627 46.6969 87.321 46.324C85.4794 45.9511 83.7477 45.1604 82.2593 44.0128C80.7709 42.8651 79.5654 41.391 78.7356 39.7039C77.9057 38.0169 77.4737 36.1618 77.4727 34.2814C77.4727 33.9457 77.4861 33.6136 77.5131 33.2849H84.2552C84.5785 33.2852 84.8968 33.2059 85.1822 33.054C85.4676 32.902 85.7112 32.6821 85.8916 32.4137C86.072 32.1452 86.1835 31.8365 86.2165 31.5146C86.2494 31.1928 86.2027 30.8678 86.0804 30.5684H88.7335C89.2783 30.5682 89.8178 30.6754 90.3211 30.8839C90.8245 31.0924 91.2819 31.3981 91.6672 31.7835C92.0525 32.1689 92.3581 32.6265 92.5666 33.1302C92.7751 33.6339 92.8824 34.1737 92.8824 34.7189Z" fill="#F0F0F0"/>
<path d="M74.4799 90.77C74.4799 91.0113 74.4709 91.2495 74.4514 91.4848H68.3037C67.759 91.4848 67.2197 91.3775 66.7165 91.1689C66.2133 90.9603 65.7561 90.6546 65.3709 90.2692C64.9858 89.8838 64.6803 89.4262 64.4719 88.9226C64.2635 88.4191 64.1562 87.8793 64.1563 87.3342V81.7063C65.4449 81.5386 66.7545 81.6477 67.9977 82.0263C69.2409 82.4049 70.3892 83.0443 71.3661 83.9019C72.343 84.7596 73.1259 85.8158 73.6629 87C74.1998 88.1843 74.4783 89.4696 74.4799 90.77Z" fill="#F47900"/>
<path d="M24.8938 80.8956C25.0666 80.9716 25.2624 80.976 25.4384 80.9077C25.6143 80.8394 25.756 80.7041 25.8324 80.5314L31.3707 67.9702C31.4974 67.6827 31.5362 67.3641 31.482 67.0546C31.4278 66.7451 31.2831 66.4587 31.0662 66.2315C30.8493 66.0043 30.57 65.8465 30.2635 65.7782C29.9571 65.7099 29.6373 65.7341 29.3445 65.8477C29.0063 65.9769 28.7233 66.2195 28.5437 66.534C28.5151 66.5838 28.4892 66.635 28.466 66.6875L22.9278 79.2488C22.89 79.3344 22.8695 79.4266 22.8674 79.5201C22.8652 79.6136 22.8815 79.7067 22.9153 79.7939C22.9491 79.8811 22.9998 79.9609 23.0643 80.0285C23.1289 80.0962 23.2062 80.1504 23.2917 80.1882L24.8938 80.8956Z" fill="#F47900"/>
<path d="M31.146 73.127L25.668 71.9087L27.0238 68.3192C27.2548 67.4419 27.7924 66.6764 28.539 66.1617C29.2855 65.647 30.1918 65.4171 31.0932 65.5138L31.146 65.5196L31.146 73.127Z" fill="#2F2E41"/>
<path d="M42.2096 81.0747C42.0485 81.0745 41.8909 81.0275 41.7559 80.9395C41.6209 80.8515 41.5143 80.7262 41.4489 80.5788L35.9107 68.0175C35.7346 67.6179 35.7182 67.1659 35.8649 66.7545C36.0117 66.3431 36.3104 66.0036 36.6996 65.806C37.0889 65.6083 37.539 65.5674 37.9574 65.6917C38.3758 65.8161 38.7307 66.0961 38.9491 66.4744C38.9798 66.5278 39.0076 66.5827 39.0325 66.6391L44.5707 79.2004C44.6596 79.4021 44.6648 79.6308 44.5852 79.8364C44.5056 80.0419 44.3476 80.2073 44.1461 80.2963L42.4897 81.0277L42.4888 81.0258C42.3993 81.0581 42.3048 81.0747 42.2096 81.0747Z" fill="#F47900"/>
<path d="M34.5478 76.7617C34.3591 76.7619 34.1781 76.8371 34.0447 76.9706C33.9112 77.1042 33.8361 77.2852 33.8359 77.4741V92.08C33.8361 92.2689 33.9112 92.45 34.0447 92.5835C34.1781 92.7171 34.3591 92.7922 34.5478 92.7924H36.2989C36.4877 92.7922 36.6686 92.7171 36.8021 92.5835C36.9355 92.45 37.0106 92.2689 37.0108 92.08V77.4741C37.0106 77.2852 36.9355 77.1042 36.8021 76.9706C36.6686 76.8371 36.4877 76.7619 36.2989 76.7617H34.5478Z" fill="#F47900"/>
<path d="M31.0869 76.7617C30.8981 76.7619 30.7172 76.8371 30.5837 76.9706C30.4503 77.1042 30.3752 77.2852 30.375 77.4741V92.08C30.3752 92.2689 30.4503 92.45 30.5837 92.5835C30.7172 92.7171 30.8981 92.7922 31.0869 92.7924H32.838C33.0268 92.7922 33.2077 92.7171 33.3412 92.5835C33.4746 92.45 33.5497 92.2689 33.5499 92.08V77.4741C33.5497 77.2852 33.4746 77.1042 33.3412 76.9706C33.2077 76.8371 33.0268 76.7619 32.838 76.7617H31.0869Z" fill="#F47900"/>
<path d="M33.6407 61.4594C36.9825 61.4594 39.6915 58.7483 39.6915 55.404C39.6915 52.0597 36.9825 49.3486 33.6407 49.3486C30.2989 49.3486 27.5898 52.0597 27.5898 55.404C27.5898 58.7483 30.2989 61.4594 33.6407 61.4594Z" fill="#F47900"/>
<path d="M35.655 57.9458C36.0473 57.9349 36.5354 57.9212 36.9115 57.6463C37.0235 57.5611 37.1155 57.4524 37.1811 57.3279C37.2466 57.2033 37.2842 57.0659 37.2911 56.9253C37.298 56.8253 37.2816 56.7252 37.2433 56.6326C37.205 56.5401 37.1458 56.4577 37.0704 56.3918C36.874 56.2257 36.5872 56.1867 36.2781 56.2776L36.5983 53.9356L36.3633 53.9033L35.9868 56.6567L36.1831 56.5666C36.4107 56.4621 36.7231 56.409 36.9173 56.5731C36.9649 56.6161 37.0021 56.6694 37.0258 56.729C37.0495 56.7887 37.0592 56.853 37.054 56.9169C37.0483 57.0216 37.0201 57.1238 36.9713 57.2165C36.9225 57.3093 36.8544 57.3905 36.7715 57.4545C36.4788 57.6685 36.0897 57.6961 35.6484 57.7084L35.655 57.9458Z" fill="#2F2E41"/>
<path d="M39.0397 54.1377H37.7617V54.3752H39.0397V54.1377Z" fill="#2F2E41"/>
<path d="M35.0045 54.1377H33.7266V54.3752H35.0045V54.1377Z" fill="#2F2E41"/>
<path d="M39.6368 81.149L37.4589 65.2388C37.4356 65.0682 37.3513 64.9118 37.2216 64.7986C37.0919 64.6854 36.9257 64.623 36.7536 64.623H35.1097C35.1166 64.5838 35.1202 64.5441 35.1204 64.5043V63.9106C35.1204 63.7217 35.0454 63.5405 34.9119 63.4069C34.7784 63.2733 34.5973 63.1982 34.4085 63.1982H32.9848C32.796 63.1982 32.615 63.2733 32.4815 63.4069C32.348 63.5405 32.273 63.7217 32.2729 63.9106V64.5043C32.2732 64.5441 32.2768 64.5838 32.2836 64.623H30.6397C30.4677 64.623 30.3014 64.6854 30.1718 64.7986C30.0421 64.9118 29.9578 65.0682 29.9344 65.2388L27.7566 81.149C27.7428 81.2498 27.7507 81.3524 27.7798 81.4498C27.809 81.5473 27.8586 81.6374 27.9254 81.714C27.9922 81.7907 28.0747 81.8521 28.1672 81.8942C28.2597 81.9363 28.3602 81.9581 28.4618 81.9581H38.9315C39.0331 81.9581 39.1336 81.9363 39.2261 81.8942C39.3187 81.8521 39.4011 81.7907 39.4679 81.714C39.5347 81.6374 39.5844 81.5473 39.6135 81.4498C39.6426 81.3524 39.6506 81.2498 39.6368 81.149Z" fill="#2F2E41"/>
<path d="M36.2461 73.1269V65.5196L36.2989 65.5137C37.2014 65.4171 38.1086 65.6478 38.8557 66.1637C39.6028 66.6796 40.1402 67.4466 40.3702 68.3253L41.7241 71.9087L36.2461 73.1269Z" fill="#2F2E41"/>
<path d="M33.3365 61.6479L29.1513 60.0223C28.4669 59.7564 27.7787 59.4987 27.098 59.2237C26.8064 59.122 26.5377 58.9636 26.3076 58.7575C26.1072 58.5453 25.9707 58.2808 25.9136 57.9944C25.7684 57.3804 25.7947 56.7091 25.805 56.0825C25.813 55.3971 25.8694 54.713 25.9737 54.0355C26.1565 52.7623 26.5857 51.537 27.2373 50.4283C28.411 48.5011 30.4332 47.0511 32.7593 47.1668C33.8362 47.2204 34.9193 47.6071 35.7194 48.344C35.8029 48.4438 35.8965 48.5346 35.9988 48.615C36.0699 48.6417 36.1473 48.6469 36.2214 48.6299C36.319 48.6236 36.4167 48.6188 36.5145 48.6155C36.8539 48.6012 37.1938 48.6155 37.5308 48.6582C38.1448 48.7246 38.7268 48.9664 39.2073 49.3548C39.6071 49.6991 39.9324 50.185 39.9659 50.725C39.9821 50.9729 39.9411 51.2212 39.8462 51.4508C39.7513 51.6803 39.6049 51.885 39.4185 52.0489C38.9192 52.4701 38.2067 52.3221 37.6078 52.2903L35.4136 52.174L34.3019 52.115C34.073 52.1029 34.0737 52.4591 34.3019 52.4712L37.2567 52.6279C37.7316 52.6531 38.2209 52.7148 38.6962 52.6863C39.0613 52.6697 39.41 52.5294 39.6849 52.2882C39.9359 52.0574 40.1229 51.7655 40.2276 51.4409C40.3323 51.1162 40.3512 50.77 40.2824 50.4359C40.1301 49.7071 39.5881 49.1043 38.9528 48.7457C38.0884 48.2577 37.0559 48.2109 36.0887 48.2831L36.2145 48.3353C35.1203 47.16 33.4443 46.6638 31.8709 46.8375C30.2096 47.0208 28.732 47.9483 27.6704 49.2166C26.4868 50.6306 25.8418 52.3938 25.591 54.2069C25.4605 55.1858 25.4176 56.1744 25.4626 57.161C25.4608 57.5961 25.5352 58.0281 25.6824 58.4375C25.8504 58.8359 26.1541 59.1618 26.5396 59.3572C26.9816 59.5707 27.4359 59.7575 27.9002 59.9165L29.4421 60.5155L32.4709 61.692L33.2419 61.9914C33.4555 62.0744 33.5481 61.7301 33.3365 61.6479Z" fill="#2F2E41"/>
<path d="M26.757 49.544C26.3932 49.544 26.0377 49.4361 25.7353 49.2339C25.4328 49.0316 25.1971 48.7442 25.058 48.4079C24.9188 48.0716 24.8823 47.7016 24.9533 47.3446C25.0243 46.9876 25.1994 46.6597 25.4566 46.4023C25.7138 46.1449 26.0415 45.9697 26.3982 45.8986C26.7549 45.8276 27.1247 45.8641 27.4607 46.0034C27.7967 46.1427 28.0839 46.3786 28.286 46.6812C28.4881 46.9838 28.5959 47.3397 28.5959 47.7036C28.5954 48.1916 28.4015 48.6594 28.0567 49.0044C27.7119 49.3494 27.2445 49.5435 26.757 49.544ZM26.757 46.2195C26.4636 46.2195 26.1769 46.3065 25.933 46.4696C25.6891 46.6327 25.499 46.8645 25.3868 47.1357C25.2745 47.4069 25.2452 47.7053 25.3024 47.9932C25.3596 48.2811 25.5009 48.5455 25.7083 48.7531C25.9157 48.9607 26.1799 49.102 26.4676 49.1593C26.7553 49.2166 27.0535 49.1872 27.3245 49.0748C27.5955 48.9625 27.8271 48.7723 27.9901 48.5282C28.153 48.2841 28.24 47.9972 28.24 47.7036C28.2396 47.3102 28.0832 46.9329 27.8051 46.6547C27.5271 46.3764 27.1501 46.2199 26.757 46.2195Z" fill="#2F2E41"/>
<path d="M57.496 60.9489L53.5156 57.9023L50.4713 61.8857L54.4517 64.9323L57.496 60.9489Z" fill="#F0F0F0"/>
<path d="M35.0009 33.7521C35.6298 33.7516 36.25 33.8985 36.812 34.181C37.374 34.4635 37.8621 34.8738 38.2372 35.379L40.5614 32.3378L33.5876 27L28.2539 33.979L31.2596 36.2796C31.5604 35.533 32.0773 34.8935 32.7439 34.4432C33.4106 33.9928 34.1965 33.7521 35.0009 33.7521Z" fill="#F0F0F0"/>
<path d="M101.881 93.0002H18.1186C18.0872 93.0002 18.057 92.9877 18.0347 92.9654C18.0125 92.9431 18 92.9129 18 92.8814C18 92.8499 18.0125 92.8197 18.0347 92.7975C18.057 92.7752 18.0872 92.7627 18.1186 92.7627H101.881C101.913 92.7627 101.943 92.7752 101.965 92.7975C101.987 92.8197 102 92.8499 102 92.8814C102 92.9129 101.987 92.9431 101.965 92.9654C101.943 92.9877 101.913 93.0002 101.881 93.0002Z" fill="#3F3D56"/>
<path d="M81.439 73.2987H72.913C72.5984 73.2983 72.2969 73.1731 72.0744 72.9505C71.852 72.7279 71.7269 72.4261 71.7266 72.1113V71.5203C71.7269 71.2055 71.852 70.9038 72.0744 70.6812C72.2969 70.4586 72.5984 70.3334 72.913 70.333H81.439C81.7536 70.3334 82.0551 70.4586 82.2776 70.6812C82.5 70.9038 82.6251 71.2055 82.6255 71.5203V72.1113C82.6251 72.4261 82.5 72.7279 82.2776 72.9505C82.0551 73.1731 81.7536 73.2983 81.439 73.2987Z" fill="#F47900"/>
<path d="M82.3343 72.1596H73.8083C73.478 72.1592 73.1613 72.0278 72.9278 71.794C72.6942 71.5603 72.5629 71.2434 72.5625 70.9129V70.3219C72.5629 69.9914 72.6942 69.6745 72.9278 69.4408C73.1613 69.207 73.478 69.0756 73.8083 69.0752H82.3343C82.6646 69.0756 82.9812 69.207 83.2148 69.4408C83.4483 69.6745 83.5797 69.9914 83.5801 70.3219V70.9129C83.5797 71.2434 83.4483 71.5603 83.2148 71.794C82.9812 72.0278 82.6646 72.1592 82.3343 72.1596ZM73.8083 69.3127C73.5409 69.313 73.2846 69.4194 73.0955 69.6086C72.9064 69.7978 72.8001 70.0543 72.7998 70.3219V70.9129C72.8001 71.1805 72.9064 71.437 73.0955 71.6262C73.2846 71.8154 73.5409 71.9218 73.8083 71.9221H82.3343C82.6017 71.9218 82.858 71.8154 83.0471 71.6262C83.2361 71.437 83.3425 71.1805 83.3428 70.9129V70.3219C83.3425 70.0543 83.2361 69.7978 83.0471 69.6086C82.858 69.4194 82.6017 69.313 82.3343 69.3127H73.8083Z" fill="#3F3D56"/>
</g>
<defs>
<clipPath id="clip0_6423_13458">
<rect width="84" height="66" fill="white" transform="translate(18 27)"/>
</clipPath>
</defs>
</svg>
