<svg width="18" height="18" viewBox="0 0 18 18" fill="none" xmlns="http://www.w3.org/2000/svg">
<g clip-path="url(#clip0_1176_11504)">
<path d="M0.384922 8.89417C0.3845 10.4065 0.78275 11.8832 1.54002 13.1848L0.3125 17.6319L4.89913 16.4386C6.16772 17.1239 7.5891 17.4829 9.0335 17.483H9.0373C13.8055 17.483 17.687 13.6331 17.689 8.90094C17.69 6.6079 16.7908 4.45166 15.1572 2.82943C13.5238 1.20734 11.3515 0.313547 9.03695 0.3125C4.26814 0.3125 0.386961 4.16227 0.384992 8.89417" fill="url(#paint0_linear_1176_11504)"/>
<path d="M0.0752344 8.88949C0.0747422 10.4563 0.487266 11.9858 1.27153 13.334L0 17.9405L4.75109 16.7044C6.06016 17.4126 7.53405 17.786 9.03382 17.7866H9.03769C13.977 17.7866 17.9979 13.7981 18 8.8966C18.0008 6.52116 17.0693 4.28742 15.3773 2.60707C13.6851 0.92693 11.4351 0.000976744 9.03769 0C4.09753 0 0.0772734 3.98791 0.0753047 8.88949H0.0752344ZM2.90461 13.1018L2.72721 12.8223C1.98148 11.6458 1.58787 10.2862 1.58843 8.89005C1.59005 4.81598 4.93158 1.5014 9.0405 1.5014C11.0303 1.50223 12.9004 2.27191 14.3069 3.66837C15.7134 5.06498 16.4873 6.92149 16.4868 8.89605C16.485 12.9701 13.1434 16.2851 9.03769 16.2851H9.03473C7.69788 16.2844 6.38677 15.9282 5.24334 15.255L4.97123 15.0949L2.15184 15.8283L2.90461 13.1017V13.1018Z" fill="url(#paint1_linear_1176_11504)"/>
<path d="M6.79836 5.17426C6.63059 4.80428 6.45404 4.79681 6.2945 4.79033C6.16386 4.78474 6.01452 4.78516 5.86531 4.78516C5.71597 4.78516 5.47332 4.84091 5.26822 5.06312C5.06291 5.28554 4.48438 5.82302 4.48438 6.91621C4.48438 8.00947 5.28685 9.06595 5.39872 9.21435C5.51073 9.36247 6.94791 11.6776 9.22407 12.5683C11.1158 13.3084 11.5007 13.1612 11.9113 13.1241C12.3219 13.0871 13.2362 12.5868 13.4228 12.0679C13.6095 11.5491 13.6095 11.1044 13.5535 11.0115C13.4975 10.9189 13.3482 10.8633 13.1242 10.7522C12.9002 10.6411 11.7993 10.1035 11.594 10.0294C11.3887 9.95528 11.2394 9.9183 11.0901 10.1408C10.9408 10.3629 10.5119 10.8633 10.3812 11.0115C10.2506 11.16 10.1199 11.1785 9.89605 11.0674C9.67196 10.9559 8.95077 10.7215 8.09513 9.96463C7.42941 9.37565 6.97998 8.64833 6.84934 8.42584C6.7187 8.2037 6.83534 8.08328 6.94763 7.97256C7.04825 7.873 7.17165 7.71309 7.28373 7.5834C7.39538 7.45363 7.43265 7.36105 7.50732 7.21286C7.58206 7.06454 7.54466 6.93477 7.48876 6.82363C7.43265 6.71249 6.99748 5.61365 6.79836 5.17433" fill="white"/>
</g>
<defs>
<linearGradient id="paint0_linear_1176_11504" x1="9.00077" y1="17.6319" x2="9.00077" y2="0.3125" gradientUnits="userSpaceOnUse">
<stop stop-color="#1FAF38"/>
<stop offset="1" stop-color="#60D669"/>
</linearGradient>
<linearGradient id="paint1_linear_1176_11504" x1="9" y1="17.9405" x2="9" y2="0" gradientUnits="userSpaceOnUse">
<stop stop-color="#F9F9F9"/>
<stop offset="1" stop-color="white"/>
</linearGradient>
<clipPath id="clip0_1176_11504">
<rect width="18" height="18" fill="white"/>
</clipPath>
</defs>
</svg>
