<svg width="14" height="12" viewBox="0 0 14 12" fill="none" xmlns="http://www.w3.org/2000/svg">
<path d="M11.0007 9.66667V10.5C11.0007 10.8978 10.8426 11.2794 10.5613 11.5607C10.28 11.842 9.89848 12 9.50065 12H4.50065C4.10283 12 3.7213 11.842 3.43999 11.5607C3.15869 11.2794 3.00065 10.8978 3.00065 10.5V9.666L1.83398 9.66667C1.43616 9.66667 1.05463 9.50863 0.773324 9.22733C0.49202 8.94602 0.333984 8.56449 0.333984 8.16667V4.16933C0.333984 3.5947 0.562257 3.0436 0.968586 2.63727C1.37492 2.23094 1.92602 2.00267 2.50065 2.00267L2.99998 2.002L3.00065 1.5C3.00065 1.10218 3.15869 0.720644 3.43999 0.43934C3.7213 0.158035 4.10283 0 4.50065 0H9.50198C9.89981 0 10.2813 0.158035 10.5626 0.43934C10.844 0.720644 11.002 1.10218 11.002 1.5V2.002H11.502C12.0766 2.00235 12.6277 2.2307 13.0341 2.63691C13.4406 3.04312 13.6693 3.59402 13.67 4.16867L13.672 8.16667C13.6721 8.36356 13.6334 8.55855 13.5581 8.74049C13.4828 8.92243 13.3725 9.08776 13.2333 9.22705C13.0941 9.36634 12.9289 9.47685 12.747 9.55228C12.5652 9.62771 12.3702 9.66658 12.1733 9.66667H11.0007ZM9.50065 7H4.50065C4.36804 7 4.24087 7.05268 4.1471 7.14645C4.05333 7.24022 4.00065 7.36739 4.00065 7.5V10.5C4.00065 10.776 4.22465 11 4.50065 11H9.50065C9.63326 11 9.76044 10.9473 9.85421 10.8536C9.94797 10.7598 10.0007 10.6326 10.0007 10.5V7.5C10.0007 7.36739 9.94797 7.24022 9.85421 7.14645C9.76044 7.05268 9.63326 7 9.50065 7ZM9.50198 1H4.50065C4.36804 1 4.24087 1.05268 4.1471 1.14645C4.05333 1.24021 4.00065 1.36739 4.00065 1.5L3.99998 2.002H10.002V1.5C10.002 1.36739 9.94931 1.24021 9.85554 1.14645C9.76177 1.05268 9.63459 1 9.50198 1Z" fill="#353535"/>
</svg>
