<svg width="12" height="12" viewBox="0 0 12 12" fill="none" xmlns="http://www.w3.org/2000/svg">
<path d="M5.99925 0C4.36838 0 4.16513 0.007875 3.52688 0.034875C2.886 0.066375 2.4525 0.16575 2.07 0.31425C1.66967 0.465383 1.30712 0.702006 1.00762 1.00762C0.701153 1.30642 0.464399 1.66917 0.31425 2.07C0.16575 2.4525 0.066375 2.886 0.034875 3.52688C0.006 4.1655 0 4.36837 0 5.99925C0 7.63013 0.007875 7.83337 0.034875 8.47162C0.066375 9.11063 0.16575 9.546 0.31425 9.9285C0.465383 10.3288 0.702006 10.6914 1.00762 10.9909C1.30642 11.2973 1.66917 11.5341 2.07 11.6842C2.4525 11.8309 2.88788 11.9321 3.52688 11.9636C4.1655 11.9925 4.36838 11.9985 5.99925 11.9985C7.63013 11.9985 7.83338 11.9906 8.47163 11.9636C9.11063 11.9321 9.546 11.8305 9.9285 11.6842C10.3288 11.5331 10.6914 11.2965 10.9909 10.9909C11.2977 10.6924 11.5346 10.3296 11.6843 9.9285C11.8309 9.546 11.9321 9.11063 11.9636 8.47162C11.9925 7.833 11.9985 7.63013 11.9985 5.99925C11.9985 4.36837 11.9906 4.16512 11.9636 3.52688C11.9321 2.88787 11.8305 2.45025 11.6843 2.07C11.5331 1.66967 11.2965 1.30712 10.9909 1.00762C10.6924 0.700759 10.3296 0.463942 9.9285 0.31425C9.546 0.16575 9.11063 0.066375 8.47163 0.034875C7.833 0.006 7.63013 0 5.99925 0ZM5.99925 1.08C7.60088 1.08 7.79213 1.08788 8.42513 1.11488C9.009 1.14225 9.327 1.23975 9.53813 1.32225C9.79914 1.4186 10.0354 1.57194 10.2296 1.77113C10.4285 1.96456 10.5812 2.20026 10.6766 2.46075C10.7591 2.67188 10.8566 2.98987 10.884 3.57375C10.911 4.20675 10.9189 4.39838 10.9189 5.99962C10.9189 7.60087 10.911 7.7925 10.8818 8.4255C10.8503 9.00938 10.7528 9.32738 10.6706 9.5385C10.557 9.82013 10.4303 10.017 10.221 10.23C10.0261 10.4279 9.79001 10.5805 9.5295 10.677C9.321 10.7595 8.9985 10.857 8.41238 10.8844C7.776 10.9114 7.5885 10.9193 5.98275 10.9193C4.377 10.9193 4.18988 10.9114 3.55275 10.8821C2.96888 10.8506 2.64675 10.7531 2.43563 10.671C2.15063 10.5574 1.95525 10.4306 1.746 10.2214C1.53488 10.0103 1.40063 9.80925 1.29713 9.52987C1.21312 9.32137 1.11713 8.99887 1.086 8.41275C1.06463 7.78387 1.0545 7.58888 1.0545 5.99063C1.0545 4.39313 1.06463 4.19775 1.086 3.561C1.11713 2.97488 1.21312 2.65313 1.29713 2.44388C1.40063 2.1585 1.53525 1.9635 1.746 1.75237C1.95488 1.5435 2.15063 1.4085 2.43563 1.30275C2.64675 1.22063 2.961 1.12313 3.54713 1.09388C4.1835 1.071 4.371 1.06275 5.9745 1.06275L5.99925 1.08ZM5.99925 2.92013C5.59475 2.91998 5.19419 2.99954 4.82046 3.15427C4.44672 3.30899 4.10714 3.53585 3.82112 3.82187C3.5351 4.10789 3.30824 4.44747 3.15352 4.82121C2.99879 5.19494 2.91923 5.5955 2.91938 6C2.91923 6.4045 2.99879 6.80506 3.15352 7.17879C3.30824 7.55253 3.5351 7.89211 3.82112 8.17813C4.10714 8.46415 4.44672 8.69101 4.82046 8.84573C5.19419 9.00046 5.59475 9.08002 5.99925 9.07987C6.40375 9.08002 6.80431 9.00046 7.17804 8.84573C7.55178 8.69101 7.89136 8.46415 8.17738 8.17813C8.4634 7.89211 8.69026 7.55253 8.84499 7.17879C8.99971 6.80506 9.07927 6.4045 9.07913 6C9.07927 5.5955 8.99971 5.19494 8.84499 4.82121C8.69026 4.44747 8.4634 4.10789 8.17738 3.82187C7.89136 3.53585 7.55178 3.30899 7.17804 3.15427C6.80431 2.99954 6.40375 2.91998 5.99925 2.92013ZM5.99925 7.99988C4.89375 7.99988 3.99938 7.1055 3.99938 6C3.99938 4.8945 4.89375 4.00012 5.99925 4.00012C7.10475 4.00012 7.99913 4.8945 7.99913 6C7.99913 7.1055 7.10475 7.99988 5.99925 7.99988ZM9.92325 2.79713C9.92305 2.98825 9.84699 3.17148 9.71177 3.30655C9.57656 3.44163 9.39325 3.5175 9.20213 3.5175C9.10762 3.5175 9.01405 3.49889 8.92674 3.46272C8.83943 3.42656 8.7601 3.37355 8.69327 3.30673C8.62645 3.2399 8.57344 3.16057 8.53728 3.07326C8.50111 2.98595 8.4825 2.89238 8.4825 2.79787C8.4825 2.70337 8.50111 2.6098 8.53728 2.52249C8.57344 2.43518 8.62645 2.35585 8.69327 2.28902C8.7601 2.2222 8.83943 2.16919 8.92674 2.13303C9.01405 2.09686 9.10762 2.07825 9.20213 2.07825C9.5985 2.07825 9.92325 2.40075 9.92325 2.79713Z" fill="#F47900"/>
</svg>
