<svg width="14" height="12" viewBox="0 0 14 12" fill="none" xmlns="http://www.w3.org/2000/svg">
<path d="M14 1.46092C13.4758 1.70476 12.9197 1.86481 12.3503 1.93576C12.9434 1.56255 13.3988 0.971564 13.6132 0.267411C13.0494 0.618675 12.4326 0.866163 11.7893 0.999181C11.2654 0.413133 10.5189 0.046875 9.69276 0.046875C8.10649 0.046875 6.82041 1.39708 6.82041 3.06238C6.82041 3.29876 6.84584 3.52888 6.89478 3.74965C4.50767 3.62385 2.39127 2.42333 0.974586 0.598875C0.727398 1.04425 0.585758 1.56232 0.585758 2.11489C0.585758 3.16113 1.09288 4.0841 1.86353 4.6249C1.40741 4.60991 0.961324 4.48057 0.562516 4.24768C0.562352 4.26031 0.562352 4.27294 0.562352 4.28563C0.562352 5.7467 1.55241 6.96554 2.86634 7.24257C2.44338 7.36334 1.99972 7.38101 1.56926 7.29424C1.93473 8.49229 2.99551 9.3641 4.25234 9.3885C3.26933 10.1973 2.03082 10.6794 0.68518 10.6794C0.453305 10.6794 0.224711 10.6651 0 10.6372C1.2711 11.4929 2.78086 11.9921 4.40289 11.9921C9.68609 11.9921 12.5751 7.39702 12.5751 3.4121C12.5751 3.28131 12.5723 3.15126 12.5668 3.02196C13.1291 2.59517 13.6144 2.06656 14 1.46092Z" fill="#55ACEE"/>
</svg>
