<svg width="62" height="62" viewBox="0 0 62 62" fill="none" xmlns="http://www.w3.org/2000/svg">
<g clip-path="url(#clip0_6427_14024)">
<path d="M56.8327 19.4654V43.9166C56.8328 45.8934 56.0775 47.7956 54.7214 49.2338C53.3652 50.6721 51.5107 51.5378 49.5374 51.6537L49.0827 51.6666H12.916C10.9392 51.6668 9.0371 50.9115 7.59884 49.5553C6.16058 48.1992 5.2949 46.3447 5.17893 44.3713L5.16602 43.9166V19.4654L29.5656 35.7326L29.8653 35.9031C30.2184 36.0757 30.6063 36.1654 30.9994 36.1654C31.3924 36.1654 31.7803 36.0757 32.1334 35.9031L32.4331 35.7326L56.8327 19.4654Z" fill="#F47900"/>
<path d="M49.0835 10.3333C51.8735 10.3333 54.3199 11.8058 55.6839 14.0197L31.0002 30.4756L6.31641 14.0197C6.96413 12.9677 7.85404 12.0858 8.9119 11.4477C9.96976 10.8096 11.1649 10.4337 12.3976 10.3514L12.9168 10.3333H49.0835Z" fill="#F47900"/>
</g>
<defs>
<clipPath id="clip0_6427_14024">
<rect width="62" height="62" fill="white"/>
</clipPath>
</defs>
</svg>
